<svg id="组_1071" data-name="组 1071" xmlns="http://www.w3.org/2000/svg" xmlns:xlink="http://www.w3.org/1999/xlink" width="21.976" height="20.256" viewBox="0 0 21.976 20.256">
  <defs>
    <style>
      .cls-1 {
        fill: #626165;
      }

      .cls-2 {
        clip-path: url(#clip-path);
      }
    </style>
    <clipPath id="clip-path">
      <path id="路径_33" data-name="路径 33" class="cls-1" d="M224.884-168a2.642,2.642,0,0,1,1.693.63h0l1.411,1.172,1.411-1.172a2.642,2.642,0,0,1,1.693-.63h5.66a2.289,2.289,0,0,1,2.223,1.938h0v14.317c0,1.568-.508,2.735-2.578,2.735h-4.916a1.7,1.7,0,0,0-.9.257h0l-.866.533a3.18,3.18,0,0,1-3.273.044h0l-1.082-.606a1.692,1.692,0,0,0-.84-.228h-5.18a2.4,2.4,0,0,1-2.344-2.5h0v-14.556A2.263,2.263,0,0,1,219.344-168h5.54Zm10.327,1.618q-1.511-.008-3.652.01a2.569,2.569,0,0,0-1.671.638c-.7.609-1.114.948-1.114,1.964h0v6.2a.752.752,0,0,1-.786.848c-.66-.114-.79-.456-.777-.9h0v-6.143c0-1.021-.4-1.355-1.114-1.964a2.571,2.571,0,0,0-1.68-.648c-.585,0-3.7.009-4.362.01h-.063a1.289,1.289,0,0,0-1.3,1.418h0v13.02a1.146,1.146,0,0,0,1.187,1.262h5.07a1.637,1.637,0,0,1,.829.231h0l.68.4a3.07,3.07,0,0,0,3.252-.064h0l.47-.3a1.642,1.642,0,0,1,.885-.26h4.768c.816,0,1.452-.244,1.452-1.369h0v-12.718C237.282-165.491,236.975-166.372,235.211-166.382Z" transform="translate(-217 168)"/>
    </clipPath>
  </defs>
  <g id="组_30" data-name="组 30" class="cls-2">
    <path id="路径_32" data-name="路径 32" class="cls-1" d="M212-173h23.276v21.5H212Z" transform="translate(-212.65 172.379)"/>
  </g>
</svg>
