<svg id="组_1072" data-name="组 1072" xmlns="http://www.w3.org/2000/svg" xmlns:xlink="http://www.w3.org/1999/xlink" width="22.916" height="21.844" viewBox="0 0 22.916 21.844">
  <defs>
    <style>
      .cls-1 {
        fill: #626165;
      }

      .cls-2 {
        clip-path: url(#clip-path);
      }
    </style>
    <clipPath id="clip-path">
      <path id="路径_43" data-name="路径 43" class="cls-1" d="M688.636-172a6.689,6.689,0,0,1,6.831,6.522,6.426,6.426,0,0,1-2.78,5.247c4.141.942,7.229,3.486,7.23,7.724a2.411,2.411,0,0,1-2.462,2.351H679.462A2.411,2.411,0,0,1,677-152.507c0-4.33,3.225-6.94,7.5-7.784a6.42,6.42,0,0,1-2.7-5.187A6.688,6.688,0,0,1,688.636-172Zm1.838,13.176h-4.134c-4.349,0-7.886,2.865-7.886,6.386a.808.808,0,0,0,.877.71h18.151a.81.81,0,0,0,.878-.71c0-3.522-3.537-6.386-7.886-6.386ZM688.6-170.482a5.129,5.129,0,0,0-5.238,5,5.128,5.128,0,0,0,5.238,5,5.128,5.128,0,0,0,5.238-5A5.129,5.129,0,0,0,688.6-170.482Zm1.649,5.887a.824.824,0,0,1,1.127,0,.738.738,0,0,1,0,1.076,3.963,3.963,0,0,1-2.742,1.082,3.966,3.966,0,0,1-2.743-1.083.736.736,0,0,1,0-1.075.823.823,0,0,1,1.125,0A2.367,2.367,0,0,0,690.251-164.595Z" transform="translate(-677 172)"/>
    </clipPath>
  </defs>
  <g id="组_35" data-name="组 35" class="cls-2">
    <path id="路径_42" data-name="路径 42" class="cls-1" d="M672-177h24.241v23.114H672Z" transform="translate(-672.662 176.365)"/>
  </g>
</svg>
