<svg id="组_1073" data-name="组 1073" xmlns="http://www.w3.org/2000/svg" xmlns:xlink="http://www.w3.org/1999/xlink" width="25.954" height="19.153" viewBox="0 0 25.954 19.153">
  <defs>
    <style>
      .cls-1 {
        fill: #626165;
      }

      .cls-2 {
        clip-path: url(#clip-path);
      }

      .cls-3 {
        clip-path: url(#clip-path-2);
      }
    </style>
    <clipPath id="clip-path">
      <path id="路径_45" data-name="路径 45" class="cls-1" d="M444.981-132.847a13.011,13.011,0,0,1-9.1-3.477,15.82,15.82,0,0,1-3.652-5.169,2.674,2.674,0,0,1,.039-2.229,16.017,16.017,0,0,1,3.729-4.956A13.1,13.1,0,0,1,444.908-152a13.292,13.292,0,0,1,8.955,3.31,16.36,16.36,0,0,1,3.81,4.95,2.67,2.67,0,0,1,.056,2.263,15.823,15.823,0,0,1-3.657,5.167A13.009,13.009,0,0,1,444.981-132.847ZM433.8-142.137c1,2.317,4.105,7.708,11.178,7.708s10.167-5.382,11.173-7.695a1.162,1.162,0,0,0-.024-.984c-1.1-2.221-4.387-7.389-11.22-7.389s-10.033,5.166-11.092,7.387A1.176,1.176,0,0,0,433.8-142.137Z" transform="translate(-432 152)"/>
    </clipPath>
    <clipPath id="clip-path-2">
      <path id="路径_49" data-name="路径 49" class="cls-1" d="M496.744-104.512A4.749,4.749,0,0,1,492-109.256,4.75,4.75,0,0,1,496.744-114a4.75,4.75,0,0,1,4.744,4.744A4.75,4.75,0,0,1,496.744-104.512Zm.07-7.814a3.143,3.143,0,0,0-3.14,3.14,3.143,3.143,0,0,0,3.14,3.14,3.143,3.143,0,0,0,3.14-3.14,3.143,3.143,0,0,0-3.14-3.14Z" transform="translate(-492 114)"/>
    </clipPath>
  </defs>
  <g id="组_36" data-name="组 36" class="cls-2">
    <path id="路径_44" data-name="路径 44" class="cls-1" d="M427-157h27.349v20.483H427Z" transform="translate(-427.698 156.335)"/>
  </g>
  <g id="组_38" data-name="组 38" class="cls-3" transform="translate(8.372 4.832)">
    <path id="路径_48" data-name="路径 48" class="cls-1" d="M487-119h10.884v10.884H487Z" transform="translate(-487.698 118.302)"/>
  </g>
</svg>
