<svg xmlns="http://www.w3.org/2000/svg" width="21.767" height="21.881" viewBox="0 0 21.767 21.881">
  <defs>
    <style>
      .cls-1 {
        fill: #626165;
      }

      .cls-2 {
        fill: #fe781d;
      }

      .cls-3 {
        fill: none;
      }
    </style>
  </defs>
  <g id="组_1092" data-name="组 1092" transform="translate(-516.288 -1547.446)">
    <g id="案例_1_" data-name="案例 (1)" transform="translate(428.378 1475.818)">
      <path id="路径_193" data-name="路径 193" class="cls-1" d="M338.15,710.921h-8.264a.772.772,0,0,1,0-1.545h8.264a.772.772,0,0,1,0,1.545Z" transform="translate(-235.139 -621.714)"/>
      <path id="路径_194" data-name="路径 194" class="cls-2" d="M311.465,239.356a.772.772,0,0,1-.359-.089l-2.564-1.348-2.564,1.348a.773.773,0,0,1-1.121-.815l.49-2.856-2.076-2.021a.772.772,0,0,1,.427-1.317l2.868-.417,1.282-2.6a.773.773,0,0,1,1.385,0l1.282,2.6,2.868.417a.772.772,0,0,1,.427,1.317l-2.074,2.022.49,2.856a.771.771,0,0,1-.762.9Z" transform="translate(-209.718 -154.232)"/>
      <path id="路径_195" data-name="路径 195" class="cls-1" d="M104.423,93.51H93.165a5.26,5.26,0,0,1-5.254-5.254V76.883a5.26,5.26,0,0,1,5.254-5.254h11.258a5.26,5.26,0,0,1,5.254,5.254V88.255A5.261,5.261,0,0,1,104.423,93.51ZM93.165,73.173a3.714,3.714,0,0,0-3.71,3.71V88.255a3.714,3.714,0,0,0,3.71,3.71h11.258a3.714,3.714,0,0,0,3.71-3.71V76.883a3.714,3.714,0,0,0-3.71-3.71Z"/>
      <path id="路径_215" data-name="路径 215" class="cls-3" d="M311.465,239.356a.772.772,0,0,1-.359-.089l-2.564-1.348-2.564,1.348a.773.773,0,0,1-1.121-.815l.49-2.856-2.076-2.021a.772.772,0,0,1,.427-1.317l2.868-.417,1.282-2.6a.773.773,0,0,1,1.385,0l1.282,2.6,2.868.417a.772.772,0,0,1,.427,1.317l-2.074,2.022.49,2.856a.771.771,0,0,1-.762.9Zm-2.925-3.082a.768.768,0,0,1,.359.089l1.539.81-.293-1.713a.772.772,0,0,1,.223-.684l1.245-1.214-1.721-.25a.774.774,0,0,1-.582-.422l-.77-1.559-.77,1.559a.769.769,0,0,1-.582.422l-1.721.25,1.245,1.214a.775.775,0,0,1,.223.684l-.294,1.713,1.54-.81A.768.768,0,0,1,308.54,236.275Z" transform="translate(-209.718 -154.232)"/>
    </g>
  </g>
</svg>
