<svg xmlns="http://www.w3.org/2000/svg" xmlns:xlink="http://www.w3.org/1999/xlink" width="21.727" height="20.956" viewBox="0 0 21.727 20.956">
  <defs>
    <style>
      .cls-1 {
        fill: #fe781d;
      }

      .cls-2 {
        fill: #626165;
      }

      .cls-3 {
        clip-path: url(#clip-path);
      }

      .cls-4 {
        clip-path: url(#clip-path-2);
      }
    </style>
    <clipPath id="clip-path">
      <path id="路径_445" data-name="路径 445" class="cls-1" d="M244.465-162h-3.422v13.119a3.194,3.194,0,0,1-.628,1.876,2.723,2.723,0,0,1-1.766.609H225l.643,2.144,9.192.635,9.189-.635.441-2Z" transform="translate(-225 162)"/>
    </clipPath>
    <clipPath id="clip-path-2">
      <path id="路径_447" data-name="路径 447" class="cls-2" d="M224.794-168a2.545,2.545,0,0,1,1.674.652h0l1.4,1.213,1.4-1.213a2.545,2.545,0,0,1,1.674-.652h5.6a2.3,2.3,0,0,1,2.2,2h0v14.812c0,1.622-.5,2.83-2.548,2.83h-4.861a1.622,1.622,0,0,0-.886.266h0l-.856.551a3.025,3.025,0,0,1-3.236.045h0l-1.07-.627a1.616,1.616,0,0,0-.83-.236h-5.121A2.427,2.427,0,0,1,217-150.936h0V-166a2.27,2.27,0,0,1,2.318-2h5.477ZM235-166.326q-1.494-.009-3.611.01a2.476,2.476,0,0,0-1.652.66,2.349,2.349,0,0,0-1.1,2.032h0v6.788c0,.759-.52.877-.777.877a.8.8,0,0,1-.769-.933h0v-6.732a2.324,2.324,0,0,0-1.1-2.032,2.479,2.479,0,0,0-1.661-.67c-.578,0-3.66.009-4.313.01h-.062a1.3,1.3,0,0,0-1.287,1.467h0v13.47a1.154,1.154,0,0,0,1.174,1.306h5.012a1.565,1.565,0,0,1,.82.239h0l.672.411a2.922,2.922,0,0,0,3.215-.066h0l.465-.315a1.572,1.572,0,0,1,.875-.269h4.713c.807,0,1.435-.252,1.435-1.417h0v-13.157C237.052-165.4,236.748-166.316,235-166.326Z" transform="translate(-217 168)"/>
    </clipPath>
  </defs>
  <g id="组_1098" data-name="组 1098" transform="translate(-8150.904 23538.875)">
    <g id="组_1093" data-name="组 1093" class="cls-3" transform="translate(8151.934 -23538.104)">
      <path id="路径_444" data-name="路径 444" class="cls-1" d="M220-167h20.75v19.67H220Z" transform="translate(-220.643 166.357)"/>
    </g>
    <g id="组_1094" data-name="组 1094" class="cls-4" transform="translate(8150.904 -23538.875)">
      <path id="路径_446" data-name="路径 446" class="cls-2" d="M212-173h23.012v22.241H212Z" transform="translate(-212.643 172.357)"/>
    </g>
  </g>
</svg>
