<svg id="组_1096" data-name="组 1096" xmlns="http://www.w3.org/2000/svg" xmlns:xlink="http://www.w3.org/1999/xlink" width="24.14" height="24" viewBox="0 0 24.14 24">
  <defs>
    <style>
      .cls-1 {
        fill: #fe781d;
      }

      .cls-2 {
        fill: #626165;
      }

      .cls-3 {
        clip-path: url(#clip-path);
      }

      .cls-4 {
        clip-path: url(#clip-path-2);
      }
    </style>
    <clipPath id="clip-path">
      <path id="路径_41" data-name="路径 41" class="cls-1" d="M699.679-41H688.786A5.616,5.616,0,0,0,683-35.573v.206h22.465v-.206A5.615,5.615,0,0,0,699.679-41Z" transform="translate(-683 41)"/>
    </clipPath>
    <clipPath id="clip-path-2">
      <path id="路径_43" data-name="路径 43" class="cls-2" d="M689.257-172a7.189,7.189,0,0,1,7.2,7.166,7.149,7.149,0,0,1-2.929,5.765c4.362,1.034,7.615,3.83,7.616,8.486A2.591,2.591,0,0,1,698.547-148H679.593A2.591,2.591,0,0,1,677-150.583c0-4.757,3.4-7.625,7.9-8.553a7.148,7.148,0,0,1-2.839-5.7A7.188,7.188,0,0,1,689.257-172Zm1.936,14.477h-4.355c-4.581,0-8.307,3.147-8.307,7.016a.863.863,0,0,0,.924.78h19.12a.865.865,0,0,0,.925-.78c0-3.869-3.726-7.016-8.307-7.016Zm-1.972-12.809a5.512,5.512,0,0,0-5.518,5.5,5.511,5.511,0,0,0,5.518,5.494,5.511,5.511,0,0,0,5.518-5.494A5.512,5.512,0,0,0,689.221-170.332Zm1.737,6.469a.842.842,0,0,1,1.187,0,.835.835,0,0,1,0,1.182,4.082,4.082,0,0,1-2.888,1.189,4.086,4.086,0,0,1-2.89-1.19.833.833,0,0,1,0-1.181.841.841,0,0,1,1.185,0A2.419,2.419,0,0,0,690.958-163.864Z" transform="translate(-677 172)"/>
    </clipPath>
  </defs>
  <g id="组_34" data-name="组 34" class="cls-3" transform="translate(0.837 17.669)">
    <path id="路径_40" data-name="路径 40" class="cls-1" d="M678-46h23.86v7.2H678Z" transform="translate(-678.698 45.218)"/>
  </g>
  <g id="组_35" data-name="组 35" class="cls-4">
    <path id="路径_42" data-name="路径 42" class="cls-2" d="M672-177h25.535v25.4H672Z" transform="translate(-672.698 176.302)"/>
  </g>
</svg>
