<svg id="组_1099" data-name="组 1099" xmlns="http://www.w3.org/2000/svg" width="21.767" height="20.942" viewBox="0 0 21.767 20.942">
  <defs>
    <style>
      .cls-1 {
        fill: #626165;
      }
    </style>
  </defs>
  <g id="案例_1_" data-name="案例 (1)" transform="translate(0 0)">
    <path id="路径_193" data-name="路径 193" class="cls-1" d="M338.15,710.921h-8.264a.772.772,0,0,1,0-1.545h8.264a.772.772,0,0,1,0,1.545Z" transform="translate(-323.049 -694.083)"/>
    <path id="路径_194" data-name="路径 194" class="cls-1" d="M311.465,239.356a.772.772,0,0,1-.359-.089l-2.564-1.348-2.564,1.348a.773.773,0,0,1-1.121-.815l.49-2.856-2.076-2.021a.772.772,0,0,1,.427-1.317l2.868-.417,1.282-2.6a.773.773,0,0,1,1.385,0l1.282,2.6,2.868.417a.772.772,0,0,1,.427,1.317l-2.074,2.022.49,2.856a.771.771,0,0,1-.762.9Zm-2.925-3.082a.768.768,0,0,1,.359.089l1.539.81-.293-1.713a.772.772,0,0,1,.223-.684l1.245-1.214-1.721-.25a.774.774,0,0,1-.582-.422l-.77-1.559-.77,1.559a.769.769,0,0,1-.582.422l-1.721.25,1.245,1.214a.775.775,0,0,1,.223.684l-.294,1.713,1.54-.81A.768.768,0,0,1,308.54,236.275Z" transform="translate(-297.628 -225.861)"/>
    <path id="路径_195" data-name="路径 195" class="cls-1" d="M104.423,92.571H93.165a5.151,5.151,0,0,1-5.254-5.029V76.658a5.151,5.151,0,0,1,5.254-5.029h11.258a5.151,5.151,0,0,1,5.254,5.029V87.541A5.152,5.152,0,0,1,104.423,92.571ZM93.165,73.107a3.637,3.637,0,0,0-3.71,3.55V87.541a3.637,3.637,0,0,0,3.71,3.55h11.258a3.637,3.637,0,0,0,3.71-3.55V76.658a3.637,3.637,0,0,0-3.71-3.55Z" transform="translate(-87.91 -71.629)"/>
  </g>
</svg>
